<svg xmlns="http://www.w3.org/2000/svg" viewBox="0 0 640 360" font-family="&#39;DM Sans&#39;, system-ui, -apple-system, sans-serif">
  <rect width="640" height="360" fill="#ffffff"></rect>

  
  <g stroke="#ECECEC" stroke-width="1.5">
    <line x1="92" y1="70" x2="600" y2="70"></line>
    <line x1="92" y1="128" x2="600" y2="128"></line>
    <line x1="92" y1="186" x2="600" y2="186"></line>
    <line x1="92" y1="244" x2="600" y2="244"></line>
  </g>

  
  <g stroke="#C9C9C9" stroke-width="2.5" stroke-linecap="round">
    <line x1="92" y1="44" x2="92" y2="302"></line>
    <line x1="92" y1="302" x2="602" y2="302"></line>
  </g>
  
  <g stroke="#C9C9C9" stroke-width="2.5" stroke-linecap="round">
    <line x1="84" y1="70" x2="92" y2="70"></line>
    <line x1="84" y1="128" x2="92" y2="128"></line>
    <line x1="84" y1="186" x2="92" y2="186"></line>
    <line x1="84" y1="244" x2="92" y2="244"></line>
    <line x1="84" y1="58" x2="92" y2="58"></line>
  </g>

  
  <text x="34" y="173" transform="rotate(-90 34 173)" text-anchor="middle" fill="#475569" font-size="22" font-weight="600">Speed (Normalized)</text>

  
  <rect x="170" y="266" width="96" height="36" rx="3" fill="#4488DD"></rect>
  
  <rect x="424" y="58" width="96" height="244" rx="3" fill="#C4320A"></rect>

  
  <defs>
    <marker id="ah" viewBox="0 0 12 12" refX="6" refY="6" markerWidth="4" markerHeight="4" orient="auto-start-reverse">
      <path d="M1 1 L11 6 L1 11 z" fill="#1A1A1A"></path>
    </marker>
  </defs>
  <line x1="204" y1="262" x2="404" y2="96" stroke="#1A1A1A" stroke-width="5.5" stroke-linecap="round" marker-end="url(#ah)"></line>

  
  <text x="232" y="138" fill="#1A1A1A" font-size="58" font-weight="800" letter-spacing="-1">X83</text>

  
  <text x="218" y="338" text-anchor="middle" fill="#1A1A1A" font-size="26" font-weight="700">CPU</text>
  <text x="472" y="338" text-anchor="middle" fill="#1A1A1A" font-size="26" font-weight="700">GPU</text>
</svg>